<svg width="18" height="18" viewBox="0 0 18 18" fill="none" xmlns="http://www.w3.org/2000/svg">
<g clip-path="url(#clip0_79_43)">
<path d="M6 1.5H3C2.17157 1.5 1.5 2.17157 1.5 3V6C1.5 6.82843 2.17157 7.5 3 7.5H6C6.82843 7.5 7.5 6.82843 7.5 6V3C7.5 2.17157 6.82843 1.5 6 1.5Z" stroke="#EF92B1" stroke-width="1.5" stroke-linecap="round" stroke-linejoin="round"/>
<path d="M15 1.5H12C11.1716 1.5 10.5 2.17157 10.5 3V6C10.5 6.82843 11.1716 7.5 12 7.5H15C15.8284 7.5 16.5 6.82843 16.5 6V3C16.5 2.17157 15.8284 1.5 15 1.5Z" stroke="#EF92B1" stroke-width="1.5" stroke-linecap="round" stroke-linejoin="round"/>
<path d="M6 10.5H3C2.17157 10.5 1.5 11.1716 1.5 12V15C1.5 15.8284 2.17157 16.5 3 16.5H6C6.82843 16.5 7.5 15.8284 7.5 15V12C7.5 11.1716 6.82843 10.5 6 10.5Z" stroke="#EF92B1" stroke-width="1.5" stroke-linecap="round" stroke-linejoin="round"/>
<path d="M15 10.5H12C11.1716 10.5 10.5 11.1716 10.5 12V15C10.5 15.8284 11.1716 16.5 12 16.5H15C15.8284 16.5 16.5 15.8284 16.5 15V12C16.5 11.1716 15.8284 10.5 15 10.5Z" stroke="#EF92B1" stroke-width="1.5" stroke-linecap="round" stroke-linejoin="round"/>
</g>
<defs>
<clipPath id="clip0_79_43">
<rect width="18" height="18" fill="white"/>
</clipPath>
</defs>
</svg>
