<svg width="147" height="79" viewBox="0 0 147 79" fill="none" xmlns="http://www.w3.org/2000/svg">
<path d="M2.555 39.6299V17.5799H10.01C12.4833 17.5799 14.4667 18.1632 15.96 19.3299C17.4533 20.4965 18.2 22.1532 18.2 24.2999C18.2 25.9332 17.815 27.2749 17.045 28.3249C16.2983 29.3749 15.2717 30.1565 13.965 30.6699C12.6583 31.1832 11.2 31.4399 9.59 31.4399H6.825V39.6299H2.555ZM6.825 28.1149H8.785C9.71833 28.1149 10.5583 28.0099 11.305 27.7999C12.075 27.5899 12.6817 27.2165 13.125 26.6799C13.5683 26.1432 13.79 25.3965 13.79 24.4399C13.79 23.1799 13.3583 22.2699 12.495 21.7099C11.6317 21.1499 10.5933 20.8699 9.38 20.8699H6.825V28.1149ZM21.7298 39.6299V17.5799H25.9998V39.6299H21.7298ZM27.6032 45.4049V42.0799C28.2566 42.0565 28.8049 41.9399 29.2482 41.7299C29.7149 41.5432 30.1116 41.2982 30.4382 40.9949C30.8582 40.5982 31.1266 40.0732 31.2432 39.4199C31.3832 38.7665 31.4532 38.0782 31.4532 37.3549V17.5799H35.7232V35.6049C35.7232 37.3782 35.6066 38.8132 35.3732 39.9099C35.1632 41.0299 34.7199 42.0215 34.0432 42.8849C33.2732 43.8182 32.3166 44.4599 31.1732 44.8099C30.0299 45.1832 28.8399 45.3815 27.6032 45.4049ZM37.7759 39.6299L46.2109 17.5799H50.4809L58.8459 39.6299H54.3659L52.4059 34.2049H44.1459L42.2209 39.6299H37.7759ZM45.1609 31.0199H51.3209L50.1659 27.7649C49.8393 26.8315 49.5126 25.8865 49.1859 24.9299C48.8826 23.9732 48.5909 23.0399 48.3109 22.1299H48.2409C47.9843 23.0399 47.6926 23.9732 47.3659 24.9299C47.0393 25.8632 46.7009 26.8082 46.3509 27.7649L45.1609 31.0199ZM61.4392 39.6299L63.1192 17.5799H68.5442L72.0442 28.4999C72.3009 29.2932 72.5809 30.2032 72.8842 31.2299C73.1876 32.2565 73.4326 33.2365 73.6192 34.1699H73.7242C73.9342 33.2132 74.1909 32.2099 74.4942 31.1599C74.7976 30.0865 75.0542 29.1999 75.2642 28.4999L78.6942 17.5799H84.1192L85.8692 39.6299H81.7742L81.1442 30.0399C81.0509 28.8032 80.9809 27.4382 80.9342 25.9449C80.8876 24.4515 80.8642 23.0632 80.8642 21.7799H80.7942C80.4909 23.1099 80.1292 24.4865 79.7092 25.9099C79.3126 27.3099 78.9159 28.6165 78.5192 29.8299L75.3692 39.6299H71.9042L68.6842 29.8299C68.2876 28.5932 67.9026 27.2865 67.5292 25.9099C67.1559 24.5099 66.8176 23.1332 66.5142 21.7799H66.4092C66.4092 23.0865 66.3742 24.4982 66.3042 26.0149C66.2342 27.5315 66.1526 28.8732 66.0592 30.0399L65.4642 39.6299H61.4392ZM90.6702 39.6299V17.5799H94.9402V27.0649L103.06 17.5799H108.38L99.8402 27.2399L109.08 39.6299H103.795L96.7602 29.9699L94.9402 31.9649V39.6299H90.6702ZM109.417 39.6299L117.852 17.5799H122.122L130.487 39.6299H126.007L124.047 34.2049H115.787L113.862 39.6299H109.417ZM116.802 31.0199H122.962L121.807 27.7649C121.48 26.8315 121.153 25.8865 120.827 24.9299C120.523 23.9732 120.232 23.0399 119.952 22.1299H119.882C119.625 23.0399 119.333 23.9732 119.007 24.9299C118.68 25.8632 118.342 26.8082 117.992 27.7649L116.802 31.0199Z" fill="white"/>
<path d="M73.9912 65.2539C73.7178 65.0716 73.7064 64.8324 73.957 64.5361C74.2305 64.2171 74.652 63.8867 75.2217 63.5449C75.8141 63.1803 76.4977 62.8044 77.2725 62.417C78.0472 62.0296 78.7878 61.665 79.4941 61.3232C80.2233 60.9814 80.8613 60.6852 81.4082 60.4346C81.9551 60.1611 82.3083 59.9561 82.4678 59.8193C83.2197 59.1813 83.6071 58.6572 83.6299 58.2471C83.6755 57.8141 83.4932 57.4723 83.083 57.2217C82.6729 56.9482 82.0918 56.7432 81.3398 56.6064C80.6107 56.4469 79.8473 56.3102 79.0498 56.1963C78.2751 56.0596 77.5231 55.9229 76.7939 55.7861C76.0876 55.6494 75.5521 55.4671 75.1875 55.2393C74.8229 55.0114 74.6976 54.7152 74.8115 54.3506C74.9482 53.9632 75.4495 53.4733 76.3154 52.8809C76.6344 52.653 77.1016 52.3226 77.7168 51.8896C78.332 51.4567 78.9928 51.0124 79.6992 50.5566C80.4284 50.1009 81.1462 49.6908 81.8525 49.3262C82.5589 48.9616 83.1514 48.7223 83.6299 48.6084C83.8805 48.5628 84.1312 48.5856 84.3818 48.6768C84.6553 48.7679 84.8717 48.9046 85.0312 49.0869C85.1908 49.2464 85.2591 49.4287 85.2363 49.6338C85.2363 49.8389 85.0882 50.0212 84.792 50.1807C83.4932 50.9098 82.2399 51.5934 81.0322 52.2314C79.8473 52.8695 78.651 53.5986 77.4434 54.4189C77.375 54.6012 77.3864 54.7607 77.4775 54.8975C77.5915 55.0342 77.7168 55.1367 77.8535 55.2051C80.2689 55.4557 82.0804 55.8089 83.2881 56.2646C84.5186 56.7204 85.2933 57.2217 85.6123 57.7686C85.9541 58.3154 85.9199 58.8965 85.5098 59.5117C85.0996 60.127 84.4844 60.7308 83.6641 61.3232C82.8665 61.9157 81.9437 62.474 80.8955 62.998C79.8473 63.5221 78.8333 63.9665 77.8535 64.3311C76.8965 64.6956 76.0534 64.9691 75.3242 65.1514C74.5951 65.3337 74.1507 65.3678 73.9912 65.2539ZM86.9111 64.8438C86.8883 64.7982 86.877 64.7412 86.877 64.6729C86.877 64.5817 86.8883 64.5133 86.9111 64.4678C87.0023 64.2855 87.1504 63.9779 87.3555 63.5449C87.5833 63.0892 87.8112 62.6221 88.0391 62.1436C88.2897 61.6423 88.529 61.1751 88.7568 60.7422C88.9847 60.3092 89.1442 60.0016 89.2354 59.8193C89.2809 59.751 89.3949 59.5573 89.5771 59.2383C89.7822 58.9193 90.0215 58.5319 90.2949 58.0762C90.5911 57.5977 90.8988 57.0736 91.2178 56.5039C91.5596 55.9342 91.89 55.376 92.209 54.8291C92.5508 54.2822 92.8584 53.7695 93.1318 53.291C93.4281 52.8125 93.6673 52.4137 93.8496 52.0947C94.3053 51.3428 94.8294 50.4541 95.4219 49.4287C96.0371 48.4033 96.6637 47.3665 97.3018 46.3184C97.9398 45.2702 98.5664 44.2562 99.1816 43.2764C99.8197 42.2965 100.401 41.4876 100.925 40.8496C101.449 40.2116 101.893 39.79 102.258 39.585C102.622 39.3799 102.873 39.5166 103.01 39.9951V41.0889C102.85 41.3395 102.634 41.6699 102.36 42.0801C102.087 42.4674 101.802 42.889 101.506 43.3447C101.232 43.7777 100.959 44.1992 100.686 44.6094C100.412 45.0195 100.207 45.3385 100.07 45.5664C99.8652 45.8854 99.5348 46.3981 99.0791 47.1045C98.6234 47.8109 98.1107 48.6084 97.541 49.4971C96.9714 50.3857 96.3903 51.32 95.7979 52.2998C95.2054 53.2568 94.6699 54.1569 94.1914 55C93.7129 55.8431 93.3255 56.5723 93.0293 57.1875C92.7559 57.7799 92.6533 58.1559 92.7217 58.3154C93.2686 58.1559 93.8496 57.8711 94.4648 57.4609C95.1029 57.028 95.7409 56.5723 96.3789 56.0938C97.0169 55.6152 97.6549 55.1595 98.293 54.7266C98.931 54.2708 99.5234 53.9176 100.07 53.667C100.617 53.7354 101.096 53.9404 101.506 54.2822C101.916 54.624 102.212 55.057 102.395 55.5811C102.372 55.7861 102.349 56.1735 102.326 56.7432C102.326 57.29 102.326 57.8711 102.326 58.4863C102.326 59.1016 102.326 59.6826 102.326 60.2295C102.349 60.7764 102.372 61.1523 102.395 61.3574C102.417 61.6081 102.531 61.9271 102.736 62.3145C102.941 62.679 103.158 63.055 103.386 63.4424C103.636 63.807 103.853 64.126 104.035 64.3994C104.24 64.6729 104.331 64.821 104.309 64.8438C103.853 65.0033 103.42 65.0146 103.01 64.8779C102.6 64.7184 102.235 64.4792 101.916 64.1602C101.62 63.8184 101.369 63.4424 101.164 63.0322C100.982 62.5993 100.868 62.1777 100.822 61.7676C100.799 61.5625 100.765 61.1865 100.72 60.6396C100.674 60.07 100.629 59.4775 100.583 58.8623C100.56 58.2471 100.526 57.666 100.48 57.1191C100.458 56.5723 100.446 56.1963 100.446 55.9912L99.6602 55.5811C99.5234 55.5127 99.2842 55.5697 98.9424 55.752C98.6234 55.9342 98.2474 56.1849 97.8145 56.5039C97.3815 56.8229 96.9258 57.1875 96.4473 57.5977C95.9688 58.0078 95.513 58.3952 95.0801 58.7598C94.6699 59.1243 94.3167 59.4434 94.0205 59.7168C93.7243 59.9902 93.542 60.1611 93.4736 60.2295C93.2913 60.4118 92.9609 60.7422 92.4824 61.2207C92.0039 61.6764 91.4912 62.1777 90.9443 62.7246C90.4202 63.2487 89.9189 63.75 89.4404 64.2285C88.9847 64.707 88.6657 65.0488 88.4834 65.2539C88.1644 65.3223 87.8568 65.3564 87.5605 65.3564C87.2871 65.3337 87.0706 65.1628 86.9111 64.8438ZM108.171 65.2539C107.214 64.8665 106.61 64.2855 106.359 63.5107C106.132 62.736 106.143 61.8815 106.394 60.9473C106.644 59.9902 107.077 59.0104 107.692 58.0078C108.308 56.9824 108.991 56.0482 109.743 55.2051C110.495 54.362 111.247 53.6556 111.999 53.0859C112.774 52.4935 113.435 52.1631 113.981 52.0947C115.394 51.9124 116.499 52.015 117.297 52.4023C118.117 52.7669 118.675 53.3024 118.972 54.0088C119.268 54.7152 119.348 55.5469 119.211 56.5039C119.074 57.4382 118.767 58.3838 118.288 59.3408C117.832 60.2979 117.229 61.2207 116.477 62.1094C115.747 62.998 114.927 63.75 114.016 64.3652C113.127 64.9577 112.181 65.3564 111.179 65.5615C110.176 65.7438 109.174 65.6413 108.171 65.2539ZM107.795 63.3057C107.977 64.0348 108.365 64.445 108.957 64.5361C109.549 64.6045 110.233 64.4564 111.008 64.0918C111.805 63.7044 112.637 63.1576 113.503 62.4512C114.369 61.722 115.155 60.9359 115.861 60.0928C116.59 59.2497 117.183 58.4066 117.639 57.5635C118.117 56.6976 118.345 55.9456 118.322 55.3076C118.322 54.6696 118.015 54.1911 117.399 53.8721C116.807 53.5303 115.804 53.4619 114.392 53.667C114.073 53.9632 113.662 54.3278 113.161 54.7607C112.66 55.1709 112.136 55.6266 111.589 56.1279C111.065 56.6292 110.541 57.1761 110.017 57.7686C109.493 58.3382 109.037 58.9307 108.649 59.5459C108.262 60.1611 107.977 60.7878 107.795 61.4258C107.635 62.0638 107.635 62.6904 107.795 63.3057ZM117.092 77.5928C116.887 76.3167 116.955 75.0179 117.297 73.6963C117.616 72.3975 118.049 71.0986 118.596 69.7998C119.12 68.501 119.655 67.2021 120.202 65.9033C120.749 64.6273 121.125 63.374 121.33 62.1436C121.33 62.098 121.421 61.9613 121.604 61.7334C121.809 61.5055 122.025 61.2663 122.253 61.0156C122.504 60.7422 122.72 60.4915 122.902 60.2637C123.107 60.013 123.221 59.8649 123.244 59.8193C123.609 59.0218 123.973 58.2926 124.338 57.6318C124.725 56.9482 125.021 56.2874 125.227 55.6494C125.432 55.0114 125.523 54.3848 125.5 53.7695C125.477 53.1315 125.249 52.4479 124.816 51.7188C124.771 51.6732 124.748 51.6048 124.748 51.5137C124.748 51.4225 124.771 51.3656 124.816 51.3428C125.477 50.4997 126.241 49.7933 127.106 49.2236C127.972 48.654 128.895 48.1982 129.875 47.8564C130.855 47.5146 131.869 47.2868 132.917 47.1729C133.965 47.0589 135.002 47.0361 136.027 47.1045C136.893 47.8337 137.44 48.6654 137.668 49.5996C137.919 50.5111 137.93 51.4681 137.702 52.4707C137.497 53.4505 137.098 54.4417 136.506 55.4443C135.936 56.4469 135.275 57.3812 134.523 58.2471C133.771 59.113 132.974 59.8877 132.131 60.5713C131.311 61.2549 130.536 61.779 129.807 62.1436C129.146 62.4626 128.656 62.679 128.337 62.793C128.041 62.8841 127.744 62.9411 127.448 62.9639C127.152 62.9867 126.787 63.0094 126.354 63.0322C125.944 63.055 125.306 63.1462 124.44 63.3057C124.053 63.374 123.723 63.5563 123.449 63.8525C123.199 64.126 122.982 64.445 122.8 64.8096C122.64 65.1514 122.504 65.5046 122.39 65.8691C122.299 66.2565 122.207 66.5641 122.116 66.792C121.706 67.7946 121.33 68.7174 120.988 69.5605C120.669 70.4264 120.362 71.2695 120.065 72.0898C119.746 72.9329 119.439 73.7988 119.143 74.6875C118.846 75.5762 118.539 76.5446 118.22 77.5928C118.174 77.7067 118.094 77.7979 117.98 77.8662C117.867 77.9574 117.753 78.0029 117.639 78.0029C117.502 78.0257 117.388 78.0029 117.297 77.9346C117.183 77.889 117.115 77.7751 117.092 77.5928ZM124.816 61.7676C125.865 61.9727 126.879 61.9157 127.858 61.5967C128.861 61.2777 129.795 60.7878 130.661 60.127C131.527 59.4434 132.302 58.6344 132.985 57.7002C133.692 56.7432 134.284 55.7406 134.763 54.6924C135.241 53.6442 135.594 52.596 135.822 51.5479C136.05 50.4769 136.118 49.4971 136.027 48.6084C135.708 48.335 135.321 48.1982 134.865 48.1982C134.432 48.1755 134.045 48.1868 133.703 48.2324C132.473 48.3919 131.504 48.7109 130.798 49.1895C130.091 49.6452 129.51 50.2262 129.055 50.9326C128.622 51.639 128.246 52.4593 127.927 53.3936C127.608 54.305 127.22 55.2962 126.765 56.3672C126.674 56.5267 126.537 56.8115 126.354 57.2217C126.172 57.609 125.979 58.0306 125.773 58.4863C125.568 58.9193 125.375 59.3408 125.192 59.751C125.01 60.1611 124.885 60.446 124.816 60.6055V61.7676Z" fill="white"/>
</svg>
